<?xml version="1.0" standalone="no"?>
<!DOCTYPE svg PUBLIC "-//W3C//DTD SVG 20010904//EN"
 "http://www.w3.org/TR/2001/REC-SVG-20010904/DTD/svg10.dtd">
<svg version="1.0" xmlns="http://www.w3.org/2000/svg"
 width="128.000000pt" height="128.000000pt" viewBox="0 0 128.000000 128.000000"
 preserveAspectRatio="xMidYMid meet">
<metadata>
Created by potrace 1.11, written by Peter Selinger 2001-2013
</metadata>
<g transform="translate(0.000000,128.000000) scale(0.100000,-0.100000)"
fill="#000000" stroke="none">
<path d="M101 1266 c-51 -28 -50 -21 -51 -623 0 -415 3 -569 12 -588 25 -55
23 -55 587 -55 l519 0 31 31 31 31 0 569 c0 618 1 612 -55 637 -40 18 -1041
16 -1074 -2z m1002 -86 l27 0 0 -540 0 -540 -55 0 c-30 0 -165 0 -300 0 -135
0 -330 0 -435 0 l-190 0 0 540 0 540 218 2 c119 2 327 2 462 1 135 -2 257 -3
273 -3z"/>
<path d="M302 931 c-9 -6 -11 -90 -2 -92 37 -7 90 -2 91 9 1 6 2 29 2 49 1 38
1 38 -41 39 -23 0 -45 -2 -50 -5z"/>
<path d="M493 924 c-2 -7 -3 -29 -1 -50 l3 -38 220 1 c121 1 231 1 245 2 23 1
25 5 26 46 0 25 -2 46 -5 46 -4 1 -113 2 -245 3 -174 1 -240 -2 -243 -10z"/>
<path d="M298 678 c-3 -7 -4 -29 -3 -48 2 -35 2 -35 50 -35 l49 0 1 48 1 47
-47 0 c-28 0 -49 -5 -51 -12z"/>
<path d="M490 640 l0 -50 247 2 246 3 2 35 c3 63 15 60 -251 60 l-244 0 0 -50z"/>
<path d="M312 439 c-12 -4 -17 -18 -18 -47 0 -23 2 -42 5 -43 3 -1 25 -2 49
-4 44 -2 44 -2 44 55 0 41 -3 45 -32 45 -17 0 -38 -3 -48 -6z"/>
<path d="M507 442 c-13 -3 -17 -14 -17 -50 l0 -47 245 0 c135 0 245 2 246 5 0
3 2 24 3 48 2 36 -1 42 -18 43 -65 3 -445 3 -459 1z"/>
</g>
</svg>
